<svg id="visual" viewBox="0 0 900 600" width="900" height="600" xmlns="http://www.w3.org/2000/svg" xmlns:xlink="http://www.w3.org/1999/xlink" version="1.1"><rect x="0" y="0" width="900" height="600" fill="#ffffff"></rect><defs><linearGradient id="grad1_0" x1="33.3%" y1="100%" x2="100%" y2="0%"><stop offset="20%" stop-color="#b525ea" stop-opacity="1"></stop><stop offset="80%" stop-color="#b525ea" stop-opacity="1"></stop></linearGradient></defs><defs><linearGradient id="grad1_1" x1="33.3%" y1="100%" x2="100%" y2="0%"><stop offset="20%" stop-color="#b525ea" stop-opacity="1"></stop><stop offset="80%" stop-color="#e19ef6" stop-opacity="1"></stop></linearGradient></defs><defs><linearGradient id="grad1_2" x1="33.3%" y1="100%" x2="100%" y2="0%"><stop offset="20%" stop-color="#ffffff" stop-opacity="1"></stop><stop offset="80%" stop-color="#e19ef6" stop-opacity="1"></stop></linearGradient></defs><defs><linearGradient id="grad2_0" x1="0%" y1="100%" x2="66.7%" y2="0%"><stop offset="20%" stop-color="#b525ea" stop-opacity="1"></stop><stop offset="80%" stop-color="#b525ea" stop-opacity="1"></stop></linearGradient></defs><defs><linearGradient id="grad2_1" x1="0%" y1="100%" x2="66.7%" y2="0%"><stop offset="20%" stop-color="#e19ef6" stop-opacity="1"></stop><stop offset="80%" stop-color="#b525ea" stop-opacity="1"></stop></linearGradient></defs><defs><linearGradient id="grad2_2" x1="0%" y1="100%" x2="66.7%" y2="0%"><stop offset="20%" stop-color="#e19ef6" stop-opacity="1"></stop><stop offset="80%" stop-color="#ffffff" stop-opacity="1"></stop></linearGradient></defs><g transform="translate(900, 600)"><path d="M-486.7 0C-483 -68.7 -479.3 -137.5 -445.3 -184.5C-411.3 -231.4 -347.1 -256.6 -302.6 -302.6C-258.2 -348.7 -233.4 -415.5 -186.3 -449.7C-139.1 -483.9 -69.6 -485.3 0 -486.7L0 0Z" fill="#f1cffb"></path><path d="M-324.5 0C-322 -45.8 -319.5 -91.7 -296.9 -123C-274.2 -154.3 -231.4 -171.1 -201.8 -201.8C-172.1 -232.4 -155.6 -277 -124.2 -299.8C-92.7 -322.6 -46.4 -323.5 0 -324.5L0 0Z" fill="#cd6af1"></path><path d="M-162.2 0C-161 -22.9 -159.8 -45.8 -148.4 -61.5C-137.1 -77.1 -115.7 -85.5 -100.9 -100.9C-86.1 -116.2 -77.8 -138.5 -62.1 -149.9C-46.4 -161.3 -23.2 -161.8 0 -162.2L0 0Z" fill="#b525ea"></path></g><g transform="translate(0, 0)"><path d="M486.7 0C472.2 65.1 457.6 130.3 422.2 174.9C386.9 219.5 330.7 243.6 292 292C253.3 340.5 232 413.2 186.3 449.7C140.5 486.2 70.3 486.5 0 486.7L0 0Z" fill="#f1cffb"></path><path d="M324.5 0C314.8 43.4 305 86.8 281.5 116.6C257.9 146.3 220.5 162.4 194.7 194.7C168.9 227 154.7 275.5 124.2 299.8C93.7 324.1 46.8 324.3 0 324.5L0 0Z" fill="#cd6af1"></path><path d="M162.2 0C157.4 21.7 152.5 43.4 140.7 58.3C129 73.2 110.2 81.2 97.3 97.3C84.4 113.5 77.3 137.7 62.1 149.9C46.8 162.1 23.4 162.2 0 162.2L0 0Z" fill="#b525ea"></path></g></svg>