<svg id="visual" viewBox="0 0 900 600" width="900" height="600" xmlns="http://www.w3.org/2000/svg" xmlns:xlink="http://www.w3.org/1999/xlink" version="1.1"><rect x="0" y="0" width="900" height="600" fill="#ffffff"></rect><defs><linearGradient id="grad1_0" x1="33.3%" y1="100%" x2="100%" y2="0%"><stop offset="20%" stop-color="#851eac" stop-opacity="1"></stop><stop offset="80%" stop-color="#851eac" stop-opacity="1"></stop></linearGradient></defs><defs><linearGradient id="grad1_1" x1="33.3%" y1="100%" x2="100%" y2="0%"><stop offset="20%" stop-color="#851eac" stop-opacity="1"></stop><stop offset="80%" stop-color="#c693d6" stop-opacity="1"></stop></linearGradient></defs><defs><linearGradient id="grad1_2" x1="33.3%" y1="100%" x2="100%" y2="0%"><stop offset="20%" stop-color="#ffffff" stop-opacity="1"></stop><stop offset="80%" stop-color="#c693d6" stop-opacity="1"></stop></linearGradient></defs><defs><linearGradient id="grad2_0" x1="0%" y1="100%" x2="66.7%" y2="0%"><stop offset="20%" stop-color="#851eac" stop-opacity="1"></stop><stop offset="80%" stop-color="#851eac" stop-opacity="1"></stop></linearGradient></defs><defs><linearGradient id="grad2_1" x1="0%" y1="100%" x2="66.7%" y2="0%"><stop offset="20%" stop-color="#c693d6" stop-opacity="1"></stop><stop offset="80%" stop-color="#851eac" stop-opacity="1"></stop></linearGradient></defs><defs><linearGradient id="grad2_2" x1="0%" y1="100%" x2="66.7%" y2="0%"><stop offset="20%" stop-color="#c693d6" stop-opacity="1"></stop><stop offset="80%" stop-color="#ffffff" stop-opacity="1"></stop></linearGradient></defs><g transform="translate(900, 600)"><path d="M-486.7 0C-446.3 -49.8 -405.8 -99.6 -388 -160.7C-370.3 -221.8 -375.2 -294.2 -344.2 -344.2C-313.2 -394.1 -246.3 -421.6 -182.9 -441.6C-119.6 -461.6 -59.8 -474.2 0 -486.7L0 0Z" fill="#e3c9eb"></path><path d="M-324.5 0C-297.5 -33.2 -270.5 -66.4 -258.7 -107.2C-246.8 -147.9 -250.1 -196.2 -229.5 -229.5C-208.8 -262.7 -164.2 -281.1 -121.9 -294.4C-79.7 -307.8 -39.9 -316.1 0 -324.5L0 0Z" fill="#a75ec1"></path><path d="M-162.2 0C-148.8 -16.6 -135.3 -33.2 -129.3 -53.6C-123.4 -73.9 -125.1 -98.1 -114.7 -114.7C-104.4 -131.4 -82.1 -140.5 -61 -147.2C-39.9 -153.9 -19.9 -158.1 0 -162.2L0 0Z" fill="#851eac"></path></g><g transform="translate(0, 0)"><path d="M486.7 0C483.8 67.8 480.8 135.6 449.7 186.3C418.5 237 359.2 270.6 311.8 311.8C264.5 353.1 229.1 402 179.1 432.4C129.1 462.8 64.6 474.8 0 486.7L0 0Z" fill="#e3c9eb"></path><path d="M324.5 0C322.5 45.2 320.6 90.4 299.8 124.2C279 158 239.5 180.4 207.9 207.9C176.3 235.4 152.7 268 119.4 288.3C86.1 308.5 43 316.5 0 324.5L0 0Z" fill="#a75ec1"></path><path d="M162.2 0C161.3 22.6 160.3 45.2 149.9 62.1C139.5 79 119.7 90.2 103.9 103.9C88.2 117.7 76.4 134 59.7 144.1C43 154.3 21.5 158.3 0 162.2L0 0Z" fill="#851eac"></path></g></svg>