<svg id="visual" viewBox="0 0 900 600" width="900" height="600" xmlns="http://www.w3.org/2000/svg" xmlns:xlink="http://www.w3.org/1999/xlink" version="1.1"><rect x="0" y="0" width="900" height="600" fill="#ffffff"></rect><defs><linearGradient id="grad1_0" x1="33.3%" y1="0%" x2="100%" y2="100%"><stop offset="20%" stop-color="#e8c6f5" stop-opacity="1"></stop><stop offset="80%" stop-color="#e8c6f5" stop-opacity="1"></stop></linearGradient></defs><defs><linearGradient id="grad1_1" x1="33.3%" y1="0%" x2="100%" y2="100%"><stop offset="20%" stop-color="#e8c6f5" stop-opacity="1"></stop><stop offset="80%" stop-color="#ffffff" stop-opacity="1"></stop></linearGradient></defs><defs><linearGradient id="grad2_0" x1="0%" y1="0%" x2="66.7%" y2="100%"><stop offset="20%" stop-color="#e8c6f5" stop-opacity="1"></stop><stop offset="80%" stop-color="#e8c6f5" stop-opacity="1"></stop></linearGradient></defs><defs><linearGradient id="grad2_1" x1="0%" y1="0%" x2="66.7%" y2="100%"><stop offset="20%" stop-color="#ffffff" stop-opacity="1"></stop><stop offset="80%" stop-color="#e8c6f5" stop-opacity="1"></stop></linearGradient></defs><g transform="translate(900, 0)"><path d="M0 432.7C-48.3 432.8 -96.6 432.9 -133.7 411.5C-170.8 390.1 -196.6 347.2 -232.2 319.6C-267.7 291.9 -313 279.5 -345.5 251C-377.9 222.4 -397.5 177.7 -409.9 133.2C-422.3 88.7 -427.5 44.3 -432.7 0L0 0Z" fill="#f4e2fa"></path><path d="M0 216.3C-24.2 216.4 -48.3 216.4 -66.9 205.7C-85.4 195 -98.3 173.6 -116.1 159.8C-133.9 146 -156.5 139.8 -172.7 125.5C-188.9 111.2 -198.8 88.9 -205 66.6C-211.2 44.3 -213.7 22.2 -216.3 0L0 0Z" fill="#e8c6f5"></path></g><g transform="translate(0, 600)"><path d="M0 -432.7C38.7 -406.3 77.3 -379.9 119.3 -367.1C161.2 -354.3 206.4 -355.1 246.3 -339C286.1 -322.9 320.6 -289.9 348.7 -253.3C376.8 -216.7 398.6 -176.5 411.5 -133.7C424.4 -90.9 428.5 -45.4 432.7 0L0 0Z" fill="#f4e2fa"></path><path d="M0 -216.3C19.3 -203.1 38.7 -190 59.6 -183.6C80.6 -177.2 103.2 -177.5 123.1 -169.5C143.1 -161.4 160.3 -145 174.3 -126.7C188.4 -108.4 199.3 -88.3 205.7 -66.9C212.2 -45.4 214.3 -22.7 216.3 0L0 0Z" fill="#e8c6f5"></path></g></svg>